<svg xmlns="http://www.w3.org/2000/svg" width="1600" height="900" viewBox="0 0 1600 900" role="img" aria-labelledby="title desc">
  <title id="title">20 Next.js and Tailwind starter sites for $79</title>
  <desc id="desc">A source-code bundle for agencies and freelancers with 20 niche directions, editable source, and a commercial client-work license.</desc>
  <defs>
    <linearGradient id="bg" x1="0" y1="0" x2="1" y2="1"><stop offset="0" stop-color="#050810"/><stop offset="0.58" stop-color="#071426"/><stop offset="1" stop-color="#043b75"/></linearGradient>
    <linearGradient id="accent" x1="0" y1="0" x2="1" y2="0"><stop offset="0" stop-color="#2877ff"/><stop offset="1" stop-color="#21d4fd"/></linearGradient>
    <filter id="glow" x="-30%" y="-30%" width="160%" height="160%"><feGaussianBlur stdDeviation="14" result="blur"/><feMerge><feMergeNode in="blur"/><feMergeNode in="SourceGraphic"/></feMerge></filter>
  </defs>
  <rect width="1600" height="900" fill="url(#bg)"/>
  <g opacity=".13" stroke="#5ea7ff"><path d="M0 120H1600M0 240H1600M0 360H1600M0 480H1600M0 600H1600M0 720H1600"/><path d="M160 0V900M320 0V900M480 0V900M640 0V900M800 0V900M960 0V900M1120 0V900M1280 0V900M1440 0V900"/></g>
  <g font-family="Inter, ui-sans-serif, system-ui, -apple-system, BlinkMacSystemFont, 'Segoe UI', sans-serif">
    <text x="82" y="112" fill="#7eb7ff" font-size="28" font-weight="700" letter-spacing="5">SOURCE-CODE BUNDLE</text>
    <text x="72" y="278" fill="#ffffff" font-size="152" font-weight="900">20 NEXT.JS +</text>
    <text x="72" y="432" fill="url(#accent)" font-size="150" font-weight="900">TAILWIND</text>
    <text x="72" y="568" fill="#ffffff" font-size="126" font-weight="900">STARTER SITES</text>
    <rect x="76" y="624" width="785" height="5" rx="2.5" fill="url(#accent)" filter="url(#glow)"/>
    <text x="80" y="696" fill="#d9e9ff" font-size="37" font-weight="650">20 niche directions for agencies &amp; freelancers</text>
    <text x="80" y="758" fill="#9bb8d9" font-size="29">Next.js 15.1 • React 19 • Tailwind CSS 3.4 • TypeScript</text>
    <g transform="translate(1125 510)"><path d="M50 0H300L380 80V330L300 410H50L-30 330V80Z" fill="#06142a" stroke="#22cfff" stroke-width="8" filter="url(#glow)"/><text x="175" y="202" fill="#ffffff" font-size="132" font-weight="900" text-anchor="middle">$79</text><text x="175" y="258" fill="#7edfff" font-size="25" font-weight="750" text-anchor="middle" letter-spacing="2">ONE TIME</text></g>
    <g transform="translate(1010 135)" fill="none" stroke="#2788ff" stroke-width="5"><rect x="0" y="0" width="450" height="255" rx="28" fill="#06162b" opacity=".9"/><circle cx="38" cy="36" r="9" fill="#2877ff"/><circle cx="68" cy="36" r="9" fill="#2877ff"/><circle cx="98" cy="36" r="9" fill="#2877ff"/><rect x="34" y="78" width="160" height="108" rx="12"/><path d="M230 90H404M230 126H375M230 162H340"/><rect x="310" y="205" width="95" height="22" rx="11" fill="#2877ff" stroke="none"/></g>
    <text x="80" y="842" fill="#dfefff" font-size="30" font-weight="650">Editable source</text><circle cx="330" cy="832" r="6" fill="#21d4fd"/><text x="356" y="842" fill="#dfefff" font-size="30" font-weight="650">Commercial client-work license</text><circle cx="840" cy="832" r="6" fill="#21d4fd"/><text x="866" y="842" fill="#dfefff" font-size="30" font-weight="650">Instant digital delivery</text>
  </g>
</svg>
